<?xml version="1.0" encoding="utf-8"?>
<!-- Generator: Adobe Illustrator 16.0.0, SVG Export Plug-In . SVG Version: 6.00 Build 0)  -->
<!DOCTYPE svg PUBLIC "-//W3C//DTD SVG 1.1//EN" "http://www.w3.org/Graphics/SVG/1.1/DTD/svg11.dtd">
<svg version="1.1" id="图层_1" xmlns="http://www.w3.org/2000/svg" xmlns:xlink="http://www.w3.org/1999/xlink" x="0px" y="0px"
	 width="1024px" height="1024px" viewBox="0 0 1024 1024" enable-background="new 0 0 1024 1024" xml:space="preserve">
<rect x="0.009" y="0.015" fill="none" width="1023.98" height="1023.979"/>
<g id="椭圆_1">
	<g>
		
			<linearGradient id="SVGID_1_" gradientUnits="userSpaceOnUse" x1="-6.1934" y1="88.2578" x2="618.1962" y2="1169.7324" gradientTransform="matrix(1 0 0 -1 206 1141)">
			<stop  offset="0" style="stop-color:#D90E11"/>
			<stop  offset="1" style="stop-color:#FF2811"/>
		</linearGradient>
		<path fill="url(#SVGID_1_)" d="M1023.985,204.677C1023.805,91.615,932.098,0.015,818.993,0.015c-0.334,0-0.666,0.011-1,0.013
			V0.015H204.671v0.004C91.721,0.199,0.194,91.727,0.014,204.677H0.009v613.322h0.013c-0.001,0.334-0.013,0.665-0.013,0.999
			c0,113.105,91.6,204.813,204.662,204.992v0.004h613.322v-0.013c0.334,0.002,0.666,0.013,1,0.013
			c113.216,0,204.996-91.779,204.996-204.996c0-0.334-0.011-0.665-0.013-0.999h0.013V204.677H1023.985z"/>
	</g>
</g>
<g id="矩形_1" opacity="0.2">
	<g>
		<path fill="#FF7E7F" d="M1024,256.028v-20.896H704.452V0h-22.244v235.132H340.895V0h-21.316v235.132H0v20.896h319.576v235.094H0
			v20.896h319.576v235.096H0v20.896h319.576V1024h21.316V768.011h341.313v255.987h22.244V768.011H1024v-20.896H704.452V512.019H1024
			v-20.896H704.452V256.028H1024z M682.208,747.112H340.895V512.019h341.313V747.112z M682.208,491.122H340.895V256.028h341.313
			V491.122z"/>
	</g>
</g>
<g id="矩形_3">
	<g>
		<path fill="#FFD8D8" d="M192.02,533.989h-42.023v64.014h-42.989V768h127.998V598.003H192.02V533.989z M192.005,726h-42.999
			v-85.998h42.999V726z M277.004,788.999h43.01v63.995h42.985v-63.995h42.002V576.003H277.004V788.999z M362.99,512.006h-43v63.982
			h43V512.006z M704.01,384.019H661v41.987h43.01V384.019z M534,405.016h-43.009v106.977h-42.99v234.021h128.001V511.991H534
			V405.016z M533.999,704.001h-43V555.004h43V704.001z M831.979,768h43.012v-63.998h-43.012V768z M618.997,576.003h127.997V426.006
			H618.997V576.003z M661,619.003h43.01v-42.987H661V619.003z M874.979,235.023v-64H832v64h-43.005v468.978h127.997V235.023H874.979
			z M874.992,661.002h-43V277.009h43V661.002z"/>
	</g>
</g>
<rect x="0.009" y="0.015" fill="none" width="1023.98" height="1023.979"/>
<g id="角标">
	<g id="椭圆_2">
		<g>
			<g>
				<path fill="#FFE65A" d="M0.018,170.011H0.009v43h170.997V0.019c-0.111,0-0.222-0.004-0.333-0.004
					C76.641,0.015,0.378,76.064,0.018,170.011z M341.002,160.137v10.541h0.333C341.336,167.137,341.215,163.625,341.002,160.137z"/>
			</g>
		</g>
	</g>
	<g id="椭圆_2_拷贝">
		<g>
			<g>
				<path fill="#FFE65A" d="M277.337,213.344C371.592,213.344,448,136.936,448,42.681V0.015H170.672v213.33L277.337,213.344
					L277.337,213.344z"/>
			</g>
		</g>
	</g>
	<g enable-background="new    ">
		<path fill="#FF1600" d="M115.132,43.997h41.473c27.99,0,49.495,9.729,49.495,39.596c0,28.843-21.675,41.814-48.812,41.814h-16.896
			v44.886h-25.259V43.997z M155.581,105.438c17.408,0,25.771-7.339,25.771-21.846c0-14.678-9.216-19.627-26.624-19.627h-14.336
			v41.473H155.581z"/>
		<path fill="#FF1600" d="M229.648,107.657c0-41.644,26.795-66.049,58.71-66.049c16.043,0,28.843,7.68,37.036,16.213l-13.313,16.043
			c-6.314-6.144-13.653-10.581-23.211-10.581c-19.115,0-33.451,16.384-33.451,43.521c0,27.478,12.971,44.033,32.939,44.033
			c10.752,0,19.286-5.12,26.113-12.459l13.312,15.701c-10.411,12.118-23.894,18.604-40.278,18.604
			C255.589,172.683,229.648,149.813,229.648,107.657z"/>
	</g>
</g>
</svg>
