<?xml version="1.0" encoding="UTF-8"?>
<svg width="256px" height="256px" viewBox="0 0 256 256" version="1.1" xmlns="http://www.w3.org/2000/svg" xmlns:xlink="http://www.w3.org/1999/xlink">
    <title>财信logo_256</title>
    <defs>
        <rect id="path-1" x="0" y="0" width="256" height="256" rx="32"></rect>
        <path d="M0,98.0150754 L114.728724,98.0150754 L112.877339,96.3563541 C103.015322,91.7324051 93.1081504,86.401016 83.3183833,80.3802491 L83.3183833,80.3802491 C45.9625348,57.3869401 16.972542,28.4691965 0,0 L0,0 L0,98.0150754 Z" id="path-3"></path>
        <linearGradient x1="165.964415%" y1="-53.5546564%" x2="8.69463908%" y2="86.8836844%" id="linearGradient-5">
            <stop stop-color="#F7BA8B" offset="0%"></stop>
            <stop stop-color="#D2A47E" offset="100%"></stop>
        </linearGradient>
        <path d="M0,0 L0,65.4668093 C26.2655958,41.7178941 79.0285869,41.787133 134.518985,64.4492997 L134.518985,64.4492997 L136.984489,69.0702384 C86.801397,50.3938193 40.1765778,54.3043074 24.6520302,80.7806301 L24.6520302,80.7806301 C5.37955526,113.587789 40.3421489,169.88196 102.753419,206.506285 L102.753419,206.506285 C165.146627,243.103517 231.326897,246.18615 250.596362,213.357918 L250.596362,213.357918 C263.30319,191.740354 252.799962,159.381742 226.299557,129.353167 L226.299557,129.353167 L222.958031,121.032467 C236.209739,133.450299 247.324075,146.48827 256,159.571397 L256,159.571397 L256,0 L0,0 Z" id="path-6"></path>
        <linearGradient x1="12.4046306%" y1="80.8646245%" x2="94.8703568%" y2="2.58343182%" id="linearGradient-8">
            <stop stop-color="#1D2088" offset="0%"></stop>
            <stop stop-color="#0086CD" offset="100%"></stop>
        </linearGradient>
        <path d="M36.1968509,22.5658345 C36.3383389,22.7103329 36.4828373,22.8728936 36.5761592,23.0384647 L36.5761592,23.0384647 L36.6002422,23.0384647 C36.6243253,23.0625478 36.645398,23.0866308 36.645398,23.1107139 L36.645398,23.1107139 C37.5033573,24.1763897 38.0723198,25.4347299 38.3522854,26.7833817 L38.3522854,26.7833817 C38.9483413,29.3933842 38.4967838,32.3315185 37.124049,34.9144275 L37.124049,34.9144275 C36.7447406,35.7212103 36.2209339,36.50391 35.6278884,37.2143605 L35.6278884,37.2143605 L0,81.5874128 L47.6694223,47.7416715 C49.3793201,46.5044039 51.2758617,45.7247145 53.217559,45.390562 L53.217559,45.390562 C57.3146909,44.6319453 61.562342,45.7939534 64.6660473,48.6628488 L64.6660473,48.6628488 L79.6216324,62.5527581 L79.6697986,62.6009243 L95.8837239,77.6769247 C95.6940698,77.3698656 93.6771129,74.2872329 90.741989,69.8077823 L90.741989,69.8077823 C87.821917,65.3975705 84.0318442,59.5905408 80.238761,53.7865215 L80.238761,53.7865215 C80.214678,53.759428 80.1905949,53.759428 80.1905949,53.735345 L80.1905949,53.735345 C78.9111819,51.7906372 77.6106963,49.8278672 76.3734287,47.9313256 L76.3734287,47.9313256 C75.1662649,46.1040229 74.0072673,44.3248862 72.9144981,42.6420819 L72.9144981,42.6420819 L72.8934254,42.6420819 C70.331589,38.7315937 68.0768118,35.2937358 66.4903397,32.900481 L66.4903397,32.900481 C65.1416879,30.8624513 64.9971895,28.9177436 65.8039723,26.5937276 L65.8039723,26.5937276 C67.3181952,22.13836 71.8939781,9.57602982 71.8939781,9.57602982 L71.8939781,9.57602982 C71.8939781,9.57602982 58.8108515,17.3277673 54.521055,19.7902609 L54.521055,19.7902609 C52.4589424,21.0004351 48.9729183,20.2418185 46.9378991,19.0105716 L46.9378991,19.0105716 L15.3168311,0 L36.1968509,22.5658345 Z" id="path-9"></path>
        <linearGradient x1="-3.9065684%" y1="102.470045%" x2="81.6549976%" y2="27.5349527%" id="linearGradient-11">
            <stop stop-color="#231916" offset="0%"></stop>
            <stop stop-color="#3F3B3A" offset="100%"></stop>
        </linearGradient>
        <path d="M36.1968509,22.5658345 C36.3383389,22.7103329 36.4828373,22.8728936 36.5761592,23.0384647 L36.5761592,23.0384647 L36.6002422,23.0384647 C36.6243253,23.0625478 36.645398,23.0866308 36.645398,23.1107139 L36.645398,23.1107139 C37.5033573,24.1763897 38.0723198,25.4347299 38.3522854,26.7833817 L38.3522854,26.7833817 C38.9483413,29.3933842 38.4967838,32.3315185 37.124049,34.9144275 L37.124049,34.9144275 C36.7447406,35.7212103 36.2209339,36.50391 35.6278884,37.2143605 L35.6278884,37.2143605 L0,81.5874128 L47.6694223,47.7416715 C49.3793201,46.5044039 51.2758617,45.7247145 53.217559,45.390562 L53.217559,45.390562 C57.3146909,44.6319453 61.562342,45.7939534 64.6660473,48.6628488 L64.6660473,48.6628488 L79.6216324,62.5527581 L79.6697986,62.6009243 L95.8837239,77.6769247 C95.6940698,77.3698656 93.6771129,74.2872329 90.741989,69.8077823 L90.741989,69.8077823 C87.821917,65.3975705 84.0318442,59.5905408 80.238761,53.7865215 L80.238761,53.7865215 C80.214678,53.759428 80.1905949,53.759428 80.1905949,53.735345 L80.1905949,53.735345 C78.9111819,51.7906372 77.6106963,49.8278672 76.3734287,47.9313256 L76.3734287,47.9313256 C75.1662649,46.1040229 74.0072673,44.3248862 72.9144981,42.6420819 L72.9144981,42.6420819 L72.8934254,42.6420819 C70.331589,38.7315937 68.0768118,35.2937358 66.4903397,32.900481 L66.4903397,32.900481 C65.1416879,30.8624513 64.9971895,28.9177436 65.8039723,26.5937276 L65.8039723,26.5937276 C67.3181952,22.13836 71.8939781,9.57602982 71.8939781,9.57602982 L71.8939781,9.57602982 C71.8939781,9.57602982 58.8108515,17.3277673 54.521055,19.7902609 L54.521055,19.7902609 C52.4589424,21.0004351 48.9729183,20.2418185 46.9378991,19.0105716 L46.9378991,19.0105716 L15.3168311,0 L36.1968509,22.5658345 Z" id="path-12"></path>
        <linearGradient x1="76.6373552%" y1="31.6757912%" x2="-111.542077%" y2="199.042913%" id="linearGradient-14">
            <stop stop-color="#F7BA8B" offset="0%"></stop>
            <stop stop-color="#F7BA8B" offset="100%"></stop>
        </linearGradient>
    </defs>
    <g id="财信logo_256" stroke="none" stroke-width="1" fill="none" fill-rule="evenodd">
        <g id="编组备份-2">
            <mask id="mask-2" fill="white">
                <use xlink:href="#path-1"></use>
            </mask>
            <use id="蒙版" fill="#FFFFFF" xlink:href="#path-1"></use>
            <g id="编组" mask="url(#mask-2)">
                <g transform="translate(0.000000, 157.984925)">
                    <mask id="mask-4" fill="white">
                        <use xlink:href="#path-3"></use>
                    </mask>
                    <g id="Clip-2"></g>
                    <path d="M0,98.0150754 L114.728724,98.0150754 L112.877339,96.3563541 C103.015322,91.7324051 93.1081504,86.401016 83.3183833,80.3802491 L83.3183833,80.3802491 C45.9625348,57.3869401 16.972542,28.4691965 0,0 L0,0 L0,98.0150754 Z" id="Fill-1" fill="url(#linearGradient-5)" mask="url(#mask-4)"></path>
                </g>
                <g>
                    <mask id="mask-7" fill="white">
                        <use xlink:href="#path-6"></use>
                    </mask>
                    <g id="Clip-4"></g>
                    <path d="M0,0 L0,65.4668093 C26.2655958,41.7178941 79.0285869,41.787133 134.518985,64.4492997 L136.984489,69.0702384 C86.801397,50.3938193 40.1765778,54.3043074 24.6520302,80.7806301 C5.37955526,113.587789 40.3421489,169.88196 102.753419,206.506285 C165.146627,243.103517 231.326897,246.18615 250.596362,213.357918 C263.30319,191.740354 252.799962,159.381742 226.299557,129.353167 L222.958031,121.032467 C236.209739,133.450299 247.324075,146.48827 256,159.571397 L256,0 L0,0 Z" id="Fill-3" fill="url(#linearGradient-8)" mask="url(#mask-7)"></path>
                </g>
                <g transform="translate(121.812157, 52.455932)">
                    <mask id="mask-10" fill="white">
                        <use xlink:href="#path-9"></use>
                    </mask>
                    <g id="Clip-6"></g>
                    <path d="M36.1968509,22.5658345 C36.3383389,22.7103329 36.4828373,22.8728936 36.5761592,23.0384647 L36.5761592,23.0384647 L36.6002422,23.0384647 C36.6243253,23.0625478 36.645398,23.0866308 36.645398,23.1107139 L36.645398,23.1107139 C37.5033573,24.1763897 38.0723198,25.4347299 38.3522854,26.7833817 L38.3522854,26.7833817 C38.9483413,29.3933842 38.4967838,32.3315185 37.124049,34.9144275 L37.124049,34.9144275 C36.7447406,35.7212103 36.2209339,36.50391 35.6278884,37.2143605 L35.6278884,37.2143605 L0,81.5874128 L47.6694223,47.7416715 C49.3793201,46.5044039 51.2758617,45.7247145 53.217559,45.390562 L53.217559,45.390562 C57.3146909,44.6319453 61.562342,45.7939534 64.6660473,48.6628488 L64.6660473,48.6628488 L79.6216324,62.5527581 L79.6697986,62.6009243 L95.8837239,77.6769247 C95.6940698,77.3698656 93.6771129,74.2872329 90.741989,69.8077823 L90.741989,69.8077823 C87.821917,65.3975705 84.0318442,59.5905408 80.238761,53.7865215 L80.238761,53.7865215 C80.214678,53.759428 80.1905949,53.759428 80.1905949,53.735345 L80.1905949,53.735345 C78.9111819,51.7906372 77.6106963,49.8278672 76.3734287,47.9313256 L76.3734287,47.9313256 C75.1662649,46.1040229 74.0072673,44.3248862 72.9144981,42.6420819 L72.9144981,42.6420819 L72.8934254,42.6420819 C70.331589,38.7315937 68.0768118,35.2937358 66.4903397,32.900481 L66.4903397,32.900481 C65.1416879,30.8624513 64.9971895,28.9177436 65.8039723,26.5937276 L65.8039723,26.5937276 C67.3181952,22.13836 71.8939781,9.57602982 71.8939781,9.57602982 L71.8939781,9.57602982 C71.8939781,9.57602982 58.8108515,17.3277673 54.521055,19.7902609 L54.521055,19.7902609 C52.4589424,21.0004351 48.9729183,20.2418185 46.9378991,19.0105716 L46.9378991,19.0105716 L15.3168311,0 L36.1968509,22.5658345 Z" id="Fill-5" fill="url(#linearGradient-11)" mask="url(#mask-10)"></path>
                </g>
                <g transform="translate(121.812157, 52.455932)">
                    <mask id="mask-13" fill="white">
                        <use xlink:href="#path-12"></use>
                    </mask>
                    <g id="Clip-8"></g>
                    <path d="M36.1968509,22.5658345 C36.3383389,22.7103329 36.4828373,22.8728936 36.5761592,23.0384647 L36.5761592,23.0384647 L36.6002422,23.0384647 C36.6243253,23.0625478 36.645398,23.0866308 36.645398,23.1107139 L36.645398,23.1107139 C37.5033573,24.1763897 38.0723198,25.4347299 38.3522854,26.7833817 L38.3522854,26.7833817 C38.9483413,29.3933842 38.4967838,32.3315185 37.124049,34.9144275 L37.124049,34.9144275 C36.7447406,35.7212103 36.2209339,36.50391 35.6278884,37.2143605 L35.6278884,37.2143605 L0,81.5874128 L47.6694223,47.7416715 C49.3793201,46.5044039 51.2758617,45.7247145 53.217559,45.390562 L53.217559,45.390562 C57.3146909,44.6319453 61.562342,45.7939534 64.6660473,48.6628488 L64.6660473,48.6628488 L79.6216324,62.5527581 L79.6697986,62.6009243 L95.8837239,77.6769247 C95.6940698,77.3698656 93.6771129,74.2872329 90.741989,69.8077823 L90.741989,69.8077823 C87.821917,65.3975705 84.0318442,59.5905408 80.238761,53.7865215 L80.238761,53.7865215 C80.214678,53.759428 80.1905949,53.759428 80.1905949,53.735345 L80.1905949,53.735345 C78.9111819,51.7906372 77.6106963,49.8278672 76.3734287,47.9313256 L76.3734287,47.9313256 C75.1662649,46.1040229 74.0072673,44.3248862 72.9144981,42.6420819 L72.9144981,42.6420819 L72.8934254,42.6420819 C70.331589,38.7315937 68.0768118,35.2937358 66.4903397,32.900481 L66.4903397,32.900481 C65.1416879,30.8624513 64.9971895,28.9177436 65.8039723,26.5937276 L65.8039723,26.5937276 C67.3181952,22.13836 71.8939781,9.57602982 71.8939781,9.57602982 L71.8939781,9.57602982 C71.8939781,9.57602982 58.8108515,17.3277673 54.521055,19.7902609 L54.521055,19.7902609 C52.4589424,21.0004351 48.9729183,20.2418185 46.9378991,19.0105716 L46.9378991,19.0105716 L15.3168311,0 L36.1968509,22.5658345 Z" id="Fill-7" fill="url(#linearGradient-14)" mask="url(#mask-13)"></path>
                </g>
            </g>
        </g>
    </g>
</svg>