<?xml version="1.0" encoding="UTF-8"?>
<svg width="256px" height="256px" viewBox="0 0 256 256" version="1.1" xmlns="http://www.w3.org/2000/svg" xmlns:xlink="http://www.w3.org/1999/xlink">
    <title>山西证券-256px</title>
    <defs>
        <path d="M72.7459704,6.88312282e-16 L183.25403,2.93902428e-15 C208.549388,-1.70765774e-15 217.722097,2.63377204 226.969702,7.57944536 C236.217307,12.5251187 243.474881,19.7826932 248.420555,29.0302983 C253.366228,38.2779034 256,47.4506117 256,72.7459704 L256,183.25403 C256,208.549388 253.366228,217.722097 248.420555,226.969702 C243.474881,236.217307 236.217307,243.474881 226.969702,248.420555 C217.722097,253.366228 208.549388,256 183.25403,256 L72.7459704,256 C47.4506117,256 38.2779034,253.366228 29.0302983,248.420555 C19.7826932,243.474881 12.5251187,236.217307 7.57944536,226.969702 C2.63377204,217.722097 -9.69148505e-16,208.549388 1.66798704e-15,183.25403 L1.95934952e-15,72.7459704 C-1.13843849e-15,47.4506117 2.63377204,38.2779034 7.57944536,29.0302983 C12.5251187,19.7826932 19.7826932,12.5251187 29.0302983,7.57944536 C38.2779034,2.63377204 47.4506117,-3.99929258e-16 72.7459704,6.88312282e-16 Z" id="path-1"></path>
    </defs>
    <g id="山西证券-256px" stroke="none" stroke-width="1" fill="none" fill-rule="evenodd">
        <mask id="mask-2" fill="white">
            <use xlink:href="#path-1"></use>
        </mask>
        <use id="app-icon" fill="#C60030" xlink:href="#path-1"></use>
        <path d="M114,144 L145,144 L145,114.5 L114,114.5 L114,144 Z M99,157 L157.5,157 L157.5,98.5 L99,98.5 L99,157 Z M37.5,120.790975 C41.1244541,76.3097381 76.4392444,40.6644671 120.5,37 L120.5,51.3802573 C108.373837,52.5779511 97.067116,56.6469373 87.2495728,62.9050856 L87.2574521,156 L81.5843934,156 L80.1661287,156 L73.0748054,156 L73.0669261,74.5171632 C61.2874502,86.7558488 53.4633567,102.896954 51.7299222,120.790975 L37.5,120.790975 Z M120.267143,219 C76.33,215.370469 41.1221429,180.05717 37.5,136 L51.69,136 C52.9707143,149.104023 57.5671429,161.257454 64.6228571,171.603975 L153,171.603975 L153,177.2761 L153,178.69806 L153,185.784288 L77.0764286,185.784288 C88.8228571,196.248651 103.790714,203.138476 120.267143,204.764695 L120.267143,219 Z M218.5,135.969429 C214.867322,180.042826 179.564939,215.369132 135.5,219 L135.5,204.759452 C147.761274,203.557021 159.179389,199.454612 169.068784,193.135958 L169.068784,105.5 L176.1529,105.5 L183.252777,105.5 L183.252777,181.504605 C194.852131,169.409569 202.550888,153.534344 204.276607,135.969429 L218.5,135.969429 Z M135.509243,37 C179.569275,40.629875 214.867726,75.9386596 218.5,120 L204.270312,120 C203.135719,108.41897 199.416775,97.5921999 193.680776,88.0775275 L193.680776,88.8003597 L103,88.8003597 L103,81.7134608 L103,74.618705 L183.382768,74.618705 C171.044068,61.7020068 154.253667,53.0673041 135.509243,51.2366528 L135.509243,37 Z" id="Fill-1" fill="#FFFFFF"></path>
    </g>
</svg>