<?xml version="1.0" encoding="UTF-8"?>
<svg width="512px" height="512px" viewBox="0 0 512 512" version="1.1" xmlns="http://www.w3.org/2000/svg" xmlns:xlink="http://www.w3.org/1999/xlink">
    <title>东北-svg</title>
    <defs>
        <filter x="-12.1%" y="-12.1%" width="124.2%" height="124.2%" filterUnits="objectBoundingBox" id="filter-1">
            <feOffset dx="4" dy="8" in="SourceAlpha" result="shadowOffsetOuter1"></feOffset>
            <feGaussianBlur stdDeviation="12" in="shadowOffsetOuter1" result="shadowBlurOuter1"></feGaussianBlur>
            <feColorMatrix values="0 0 0 0 0   0 0 0 0 0   0 0 0 0 0  0 0 0 0.234948645 0" type="matrix" in="shadowBlurOuter1" result="shadowMatrixOuter1"></feColorMatrix>
            <feMerge>
                <feMergeNode in="shadowMatrixOuter1"></feMergeNode>
                <feMergeNode in="SourceGraphic"></feMergeNode>
            </feMerge>
        </filter>
        <radialGradient cx="10.4882703%" cy="12.6202366%" fx="10.4882703%" fy="12.6202366%" r="107.313587%" gradientTransform="translate(0.104883,0.126202),rotate(88.211129),scale(1.000000,0.837571),translate(-0.104883,-0.126202)" id="radialGradient-2">
            <stop stop-color="#FBFBFB" offset="0%"></stop>
            <stop stop-color="#92A5D3" offset="100%"></stop>
        </radialGradient>
        <path d="M145.491941,-1.31327217e-14 L366.508059,5.87804855e-15 C417.098777,-3.41531548e-15 435.444193,5.26754409 453.939403,15.1588907 C472.434614,25.0502373 486.949763,39.5653865 496.841109,58.0605966 C506.732456,76.5558068 512,94.9012234 512,145.491941 L512,366.508059 C512,417.098777 506.732456,435.444193 496.841109,453.939403 C486.949763,472.434614 472.434614,486.949763 453.939403,496.841109 C435.444193,506.732456 417.098777,512 366.508059,512 L145.491941,512 C94.9012234,512 76.5558068,506.732456 58.0605966,496.841109 C39.5653865,486.949763 25.0502373,472.434614 15.1588907,453.939403 C5.26754409,435.444193 6.49205099e-15,417.098777 -1.11733721e-14,366.508059 L3.91869903e-15,145.491941 C-2.27687699e-15,94.9012234 5.26754409,76.5558068 15.1588907,58.0605966 C25.0502373,39.5653865 39.5653865,25.0502373 58.0605966,15.1588907 C76.5558068,5.26754409 94.9012234,7.63048948e-15 145.491941,-1.31327217e-14 Z" id="path-3"></path>
        <filter x="-10.3%" y="-13.6%" width="120.5%" height="127.3%" filterUnits="objectBoundingBox" id="filter-5">
            <feOffset dx="0" dy="4" in="SourceAlpha" result="shadowOffsetOuter1"></feOffset>
            <feGaussianBlur stdDeviation="8" in="shadowOffsetOuter1" result="shadowBlurOuter1"></feGaussianBlur>
            <feColorMatrix values="0 0 0 0 0   0 0 0 0 0   0 0 0 0 0  0 0 0 0.0990271935 0" type="matrix" in="shadowBlurOuter1" result="shadowMatrixOuter1"></feColorMatrix>
            <feMerge>
                <feMergeNode in="shadowMatrixOuter1"></feMergeNode>
                <feMergeNode in="SourceGraphic"></feMergeNode>
            </feMerge>
        </filter>
    </defs>
    <g id="页面-1" stroke="none" stroke-width="1" fill="none" fill-rule="evenodd">
        <g id="东北-svg">
            <g id="编组-3" filter="url(#filter-1)">
                <mask id="mask-4" fill="white">
                    <use xlink:href="#path-3"></use>
                </mask>
                <use id="app-icon" fill="url(#radialGradient-2)" xlink:href="#path-3"></use>
                <path d="M-326.34464,310.758495 C-326.34464,304.457628 108.502561,32.5718586 978.196963,-504.898814 L-326.34464,-504.898814 C-326.34464,45.1735927 -326.34464,317.059362 -326.34464,310.758495 Z" id="路径-6" fill="#FFFFFF" opacity="0.100000001" mask="url(#mask-4)"></path>
                <path d="M-326.34464,406.057309 C-326.34464,399.756442 108.502561,127.870672 978.196963,-409.6 L-326.34464,-409.6 C-326.34464,140.472406 -326.34464,412.358176 -326.34464,406.057309 Z" id="路径-6备份" fill="#FFFFFF" opacity="0.100000001" mask="url(#mask-4)"></path>
                <path d="M-326.34464,500.580386 C-326.34464,494.279519 108.502561,222.393749 978.196963,-315.076923 L-326.34464,-315.076923 C-326.34464,234.995483 -326.34464,506.881253 -326.34464,500.580386 Z" id="路径-6备份-2" fill="#FFFFFF" opacity="0.100000001" mask="url(#mask-4)"></path>
                <path d="M-326.34464,595.103463 C-326.34464,588.802596 108.502561,316.916826 978.196963,-220.553846 L-326.34464,-220.553846 C-326.34464,329.51856 -326.34464,601.40433 -326.34464,595.103463 Z" id="路径-6备份-3" fill="#FFFFFF" opacity="0.100000001" mask="url(#mask-4)"></path>
                <path d="M-326.34464,689.62654 C-326.34464,683.325673 108.502561,411.439903 978.196963,-126.030769 L-326.34464,-126.030769 C-326.34464,424.041637 -326.34464,695.927407 -326.34464,689.62654 Z" id="路径-6备份-4" fill="#FFFFFF" opacity="0.100000001" mask="url(#mask-4)"></path>
                <path d="M-326.34464,784.149617 C-326.34464,777.84875 108.502561,505.96298 978.196963,-31.5076923 L-326.34464,-31.5076923 C-326.34464,518.564714 -326.34464,790.450484 -326.34464,784.149617 Z" id="路径-6备份-5" fill="#FFFFFF" opacity="0.100000001" mask="url(#mask-4)"></path>
                <path d="M-326.34464,878.672694 C-326.34464,872.371826 108.502561,600.486057 978.196963,63.0153846 L-326.34464,-198.014267 C-326.34464,526.077907 -326.34464,884.973561 -326.34464,878.672694 Z" id="路径-6备份-6" fill="#FFFFFF" opacity="0.100000001" mask="url(#mask-4)"></path>
            </g>
            <g id="编组" filter="url(#filter-5)" transform="translate(66.000000, 113.000000)" fill="#0066B3">
                <path d="M189.99143,0 C85.0648413,0 0,64.0270995 0,143.002143 C0,221.968614 85.0648413,286 189.99143,286 C294.930873,286 380,221.968614 380,143.002143 C380,64.0270995 294.930873,0 189.99143,0 M189.99143,274.322856 C110.163062,274.322856 45.4441913,215.525608 45.4441913,143.002143 C45.4441913,70.4786786 110.163062,11.672857 189.99143,11.672857 C269.832653,11.672857 334.555809,70.4786786 334.555809,143.002143 C334.555809,215.525608 269.832653,274.322856 189.99143,274.322856" id="Fill-1"></path>
                <path d="M172.336115,91.8854895 C225.613591,70.9189292 286.085861,87.0886011 307.036041,127.808568 C327.382011,168.541394 300.454025,218.83799 247.167979,239.804551 C228.608922,246.989166 210.049866,249.39404 191.495095,248.781033 L172.336115,212.249235 C189.69961,211.057515 210.049866,206.2692 230.408692,197.87143 C277.104152,178.718171 307.631679,148.179268 298.654255,129.008861 C289.672546,110.447175 244.172647,110.447175 197.477187,129.613295 C175.927085,138.589778 157.963666,149.366701 145.399558,160.748058 L126.240578,123.616113 C137.013487,110.447175 153.177135,99.0701051 172.336115,91.8854895" id="Fill-3"></path>
                <path d="M207.659171,194.283409 C154.37741,215.249969 93.9094251,199.080297 72.9549606,157.751611 C52.6047047,117.035931 79.5455468,66.7264745 132.827308,46.3600612 C151.386364,39.1797323 169.945421,36.1832846 188.500192,37.3792916 L207.659171,73.9110901 C190.295676,75.1070971 169.945421,79.9082723 149.586594,88.2888949 C102.895419,106.854868 72.3636077,137.998204 81.3410316,156.55989 C90.3184555,175.72601 135.814069,175.125863 182.513814,156.55989 C204.063917,147.574834 222.03162,136.20205 234.595728,124.81212 L253.750423,162.544212 C242.381876,175.72601 226.813866,187.098793 207.659171,194.283409" id="Fill-5"></path>
            </g>
        </g>
    </g>
</svg>