<?xml version="1.0" encoding="UTF-8"?>
<svg width="512px" height="512px" viewBox="0 0 512 512" version="1.1" xmlns="http://www.w3.org/2000/svg" xmlns:xlink="http://www.w3.org/1999/xlink">
    <title>兴业-svg</title>
    <defs>
        <filter x="-12.1%" y="-12.1%" width="124.2%" height="124.2%" filterUnits="objectBoundingBox" id="filter-1">
            <feOffset dx="4" dy="8" in="SourceAlpha" result="shadowOffsetOuter1"></feOffset>
            <feGaussianBlur stdDeviation="12" in="shadowOffsetOuter1" result="shadowBlurOuter1"></feGaussianBlur>
            <feColorMatrix values="0 0 0 0 0   0 0 0 0 0   0 0 0 0 0  0 0 0 0.234948645 0" type="matrix" in="shadowBlurOuter1" result="shadowMatrixOuter1"></feColorMatrix>
            <feMerge>
                <feMergeNode in="shadowMatrixOuter1"></feMergeNode>
                <feMergeNode in="SourceGraphic"></feMergeNode>
            </feMerge>
        </filter>
        <path d="M145.491941,-1.31327217e-14 L366.508059,5.87804855e-15 C417.098777,-3.41531548e-15 435.444193,5.26754409 453.939403,15.1588907 C472.434614,25.0502373 486.949763,39.5653865 496.841109,58.0605966 C506.732456,76.5558068 512,94.9012234 512,145.491941 L512,366.508059 C512,417.098777 506.732456,435.444193 496.841109,453.939403 C486.949763,472.434614 472.434614,486.949763 453.939403,496.841109 C435.444193,506.732456 417.098777,512 366.508059,512 L145.491941,512 C94.9012234,512 76.5558068,506.732456 58.0605966,496.841109 C39.5653865,486.949763 25.0502373,472.434614 15.1588907,453.939403 C5.26754409,435.444193 6.49205099e-15,417.098777 -1.11733721e-14,366.508059 L3.91869903e-15,145.491941 C-2.27687699e-15,94.9012234 5.26754409,76.5558068 15.1588907,58.0605966 C25.0502373,39.5653865 39.5653865,25.0502373 58.0605966,15.1588907 C76.5558068,5.26754409 94.9012234,7.63048948e-15 145.491941,-1.31327217e-14 Z" id="path-2"></path>
        <linearGradient x1="43.299362%" y1="43.8758319%" x2="20.6347129%" y2="58.8129377%" id="linearGradient-4">
            <stop stop-color="#D00F1A" offset="0%"></stop>
            <stop stop-color="#C70A11" offset="100%"></stop>
        </linearGradient>
        <linearGradient x1="58.3475907%" y1="42.7908577%" x2="24.3338676%" y2="65.7633155%" id="linearGradient-5">
            <stop stop-color="#DD1726" offset="0%"></stop>
            <stop stop-color="#D4121E" offset="100%"></stop>
        </linearGradient>
        <linearGradient x1="16.5461562%" y1="59.2406624%" x2="60.5694137%" y2="40.6009872%" id="linearGradient-6">
            <stop stop-color="#E31A2D" offset="0%"></stop>
            <stop stop-color="#E61F30" offset="100%"></stop>
        </linearGradient>
        <linearGradient x1="50%" y1="25.6901218%" x2="28.2386411%" y2="50%" id="linearGradient-7">
            <stop stop-color="#EC2236" offset="0%"></stop>
            <stop stop-color="#EC2036" offset="100%"></stop>
        </linearGradient>
        <path d="M306.735011,109.701544 C357.401397,109.701544 401.000771,139.837574 420.610268,183.18732 C421.019103,184.165573 421.44254,185.114624 421.851375,186.092877 C422.274812,187.085731 422.654445,188.034782 423.048679,189.013035 C425.092856,194.021106 426.888811,199.145984 428.465748,204.387667 L428.465748,204.387667 L428.436545,204.387667 C433.327969,220.682149 436,237.925682 436,255.797049 C436,355.316034 355.255011,436 255.615987,436 C247.687501,436 239.919628,435.459771 232.268566,434.481518 C230.501813,434.204103 228.516041,433.912087 227.23113,433.736878 C226.836896,433.678474 226.457263,433.620071 226.106833,433.561668 C224.077257,433.196648 222.047681,432.846229 220.018106,432.422806 C219.383138,432.291025 217.890487,431.962646 216.312453,431.608055 L215.718196,431.474187 C213.634848,431.003679 211.570713,430.524704 211.271949,430.422498 C204.204937,428.641202 197.269337,426.407281 190.684167,423.822941 C189.399255,423.311913 188.625388,422.085447 188.742198,420.771376 C188.742198,420.566965 188.800604,420.391755 188.829806,420.187344 C189.22404,418.844072 190.421344,417.953423 191.779261,417.953423 C191.939875,417.953423 192.11509,417.982625 192.261103,417.982625 L192.261103,417.982625 L192.290306,417.982625 C192.772147,418.011827 193.093375,418.041028 193.516812,418.099431 C193.723663,418.115654 193.983466,418.149903 194.250843,418.190912 L194.572427,418.242645 C195.158012,418.340795 195.6924,418.44985 195.6924,418.44985 C198.364431,418.960878 201.109469,419.384301 203.854507,419.705518 C204.000519,419.73472 204.146532,419.763921 204.292544,419.763921 C209.067158,420.333352 213.914777,420.625368 218.864606,420.625368 C238.401097,420.625368 256.871695,416.157526 273.341921,408.185495 C283.854831,403.119021 293.506266,396.621669 302.135613,388.970855 C303.727151,387.569179 305.274885,386.1091 306.764214,384.61982 C307.538081,383.845978 308.34115,383.042934 309.115017,382.210689 C310.487536,380.809014 311.816251,379.378136 313.07196,377.888856 C318.591238,371.698121 323.438857,364.952556 327.614819,357.725164 C329.848812,353.885157 331.892989,349.88454 333.688944,345.781718 C334.09778,344.847268 334.492014,343.956619 334.871647,343.03677 C335.324286,341.970912 335.776925,340.890454 336.185761,339.824596 C336.214963,339.678588 336.273368,339.547181 336.331773,339.401173 C342.113874,324.56677 345.296949,308.432897 345.296949,291.539783 C345.296949,286.648518 345.034126,281.830258 344.49388,277.099602 C344.085044,273.040582 343.45719,269.083768 342.65412,265.156155 C342.683323,265.097752 342.65412,265.068551 342.624918,264.995547 C334.667229,231.939358 304.880651,207.366228 269.370377,207.366228 C266.931966,207.366228 264.522758,207.483035 262.142752,207.731248 C261.339682,207.789651 260.536613,207.877256 259.762746,207.994062 C258.988879,208.081667 258.171208,208.198473 257.397341,208.31528 C256.652676,208.432086 255.87881,208.592695 255.134145,208.738703 C254.301873,208.884711 253.469601,209.05992 252.666531,209.24973 C251.921867,209.42494 251.206405,209.600149 250.490943,209.775359 C249.746279,209.965169 249.001614,210.16958 248.25695,210.403193 C247.512285,210.607604 246.767621,210.855817 246.022956,211.08943 C245.307495,211.323042 244.56283,211.571256 243.847368,211.83407 C243.102704,212.096884 242.387242,212.374299 241.67178,212.666315 C240.372267,213.206544 239.058154,213.775975 237.74404,214.330805 C236.619743,214.871034 235.510046,215.411264 234.414952,216.039098 C234.04992,216.214307 233.728692,216.389517 233.363661,216.564726 C232.648199,216.958947 231.932737,217.338568 231.246477,217.761991 C229.669541,218.652639 228.121807,219.630892 226.603276,220.682149 L226.603276,220.682149 L226.54487,220.740552 C225.917016,221.149374 225.289162,221.601999 224.705111,222.083825 C224.135662,222.492647 223.566213,222.91607 222.996763,223.354093 C222.967561,223.383295 222.909156,223.427097 222.879953,223.456299 C222.222896,223.952726 221.595042,224.463754 220.981789,224.974781 C212.250233,232.202172 205.241627,241.415271 200.54002,251.869436 L200.54002,251.869436 L199.050691,255.198417 C198.335229,256.424883 196.991913,257.257128 195.502584,257.257128 C193.721229,257.257128 192.173495,256.089065 191.633249,254.482978 C190.348337,250.978788 189.370053,247.547603 188.625388,243.912006 C187.822319,238.349105 187.398882,232.654797 187.398882,226.872884 C187.398882,202.007738 195.152153,178.953091 208.380898,160.001265 C209.037955,159.052214 209.709613,158.132364 210.395873,157.212514 C219.813688,144.524428 231.728319,133.763646 245.424305,125.762413 C261.456492,116.374105 279.897888,110.708998 299.609595,109.905955 C300.237449,109.876753 300.865303,109.847552 301.493158,109.81835 C303.216107,109.730745 304.968258,109.701544 306.735011,109.701544 Z M256.384013,76 C264.312499,76 272.080372,76.5402292 279.731434,77.5184822 C281.498187,77.7958972 283.483959,78.087913 284.76887,78.2631225 C285.163104,78.3215256 285.542737,78.3799288 285.907769,78.4383319 C287.922743,78.8033517 289.952319,79.1537707 291.981894,79.5771936 C293.529628,79.8984109 300.173203,81.3876915 300.742653,81.5775018 C307.795063,83.3587982 314.730663,85.5927191 321.315833,88.1916597 C322.600745,88.6880866 323.374612,89.9145529 323.257802,91.228624 C323.257802,91.4330351 323.199396,91.6082446 323.170194,91.8126556 C322.77596,93.1559283 321.593257,94.0465765 320.220739,94.0465765 C320.074726,94.0465765 319.88491,94.0173749 319.738897,94.0173749 L319.738897,94.0173749 L319.709694,94.0173749 C319.227853,93.9881734 318.906625,93.9589718 318.483188,93.9005686 C318.280393,93.8843455 318.022392,93.8500968 317.755504,93.8090884 L317.433935,93.7573547 C316.847441,93.6592049 316.3076,93.5501497 316.3076,93.5501497 C313.635569,93.039122 310.890531,92.6302999 308.160095,92.2944817 C307.999481,92.2652801 307.853468,92.2360786 307.707456,92.2360786 C302.947444,91.6666477 298.085223,91.3746319 293.135394,91.3746319 C273.598903,91.3746319 255.128305,95.8424737 238.658079,103.829106 C228.145169,108.880979 218.493734,115.378331 209.864387,123.029145 C208.272849,124.430821 206.739716,125.8909 205.250387,127.38018 C204.461919,128.154022 203.65885,128.957066 202.884983,129.789311 C201.512464,131.190986 200.183749,132.621864 198.92804,134.111144 C193.423364,140.31648 188.561143,147.047444 184.385181,154.274836 C182.151188,158.114843 180.107011,162.11546 178.311056,166.218282 C177.90222,167.152732 177.507986,168.043381 177.128353,168.96323 C176.675714,170.029088 176.237676,171.109546 175.814239,172.175404 C175.785037,172.321412 175.726632,172.452819 175.668227,172.598827 C169.886126,187.43323 166.703051,203.567103 166.703051,220.460217 C166.703051,225.351482 166.965874,230.169742 167.50612,234.914999 C167.914956,238.959418 168.54281,242.916232 169.34588,246.858445 C169.316677,246.916849 169.34588,246.94605 169.375082,247.004453 C177.332771,280.060642 207.119349,304.633772 242.629623,304.633772 C245.068034,304.633772 247.477242,304.516965 249.857248,304.283353 C250.660318,304.22495 251.477989,304.122744 252.237254,304.005938 C253.025723,303.918333 253.828792,303.801527 254.602659,303.68472 C255.347324,303.567914 256.12119,303.407305 256.865855,303.261297 C257.698127,303.115289 258.530399,302.94008 259.333469,302.76487 C260.078133,302.57506 260.793595,302.399851 261.509057,302.224641 C262.253721,302.049432 262.998386,301.83042 263.74305,301.596807 C264.487715,301.392396 265.232379,301.144183 265.977044,300.91057 C266.692505,300.676958 267.43717,300.428744 268.152632,300.16593 C268.897296,299.903116 269.612758,299.625701 270.32822,299.333685 C271.642334,298.793456 272.941846,298.224025 274.25596,297.669195 C275.394859,297.128966 276.489954,296.588736 277.59965,295.960902 C277.95008,295.785693 278.271308,295.610483 278.636339,295.435274 C279.351801,295.041053 280.067263,294.661432 280.753523,294.238009 C282.330459,293.347361 283.878193,292.369108 285.396724,291.317851 C285.396724,291.317851 285.399969,291.314606 285.405377,291.309199 L285.45513,291.259448 C286.082984,290.850626 286.710838,290.398001 287.30949,289.916175 C287.864338,289.507353 288.433787,289.08393 289.003237,288.645907 C289.032439,288.616705 289.090844,288.587503 289.120047,288.543701 C289.777104,288.047274 290.404958,287.536246 291.032812,287.025219 C299.749767,279.797828 306.758373,270.584729 311.45998,260.130564 L311.45998,260.130564 L312.949309,256.801583 C313.664771,255.575117 315.008087,254.742872 316.497416,254.742872 C318.278771,254.742872 319.826505,255.910935 320.366751,257.517022 C321.651663,261.035812 322.629947,264.452397 323.374612,268.087994 C324.177681,273.665496 324.601118,279.345203 324.601118,285.127116 C324.601118,309.992262 316.847847,333.046909 303.619102,351.998735 C302.976646,352.947786 302.290387,353.867636 301.604127,354.787486 C292.186312,367.475572 280.271681,378.236354 266.575695,386.252188 C250.543508,395.625895 232.102112,401.291002 212.390405,402.094045 C211.762551,402.123247 211.134697,402.152448 210.506842,402.18165 C208.783893,402.269255 207.031742,402.298456 205.264989,402.298456 C154.598603,402.298456 110.999229,372.162426 91.4043333,328.827281 C90.9808967,327.834427 90.5720613,326.885376 90.1486246,325.907123 C89.725188,324.914269 89.3455551,323.965218 88.951321,322.986965 C86.9071441,317.978894 85.1111886,312.854016 83.5342521,307.612333 L83.5342521,307.612333 L83.5634547,307.612333 C78.6866325,291.317851 76,274.074318 76,256.202951 C76,156.683966 156.744989,76 256.384013,76 Z" id="path-8"></path>
        <filter x="-7.2%" y="-6.1%" width="114.4%" height="114.4%" filterUnits="objectBoundingBox" id="filter-9">
            <feOffset dx="0" dy="4" in="SourceAlpha" result="shadowOffsetOuter1"></feOffset>
            <feGaussianBlur stdDeviation="8" in="shadowOffsetOuter1" result="shadowBlurOuter1"></feGaussianBlur>
            <feColorMatrix values="0 0 0 0 0   0 0 0 0 0   0 0 0 0 0  0 0 0 0.101485673 0" type="matrix" in="shadowBlurOuter1"></feColorMatrix>
        </filter>
    </defs>
    <g id="页面-1" stroke="none" stroke-width="1" fill="none" fill-rule="evenodd">
        <g id="编组-7备份" filter="url(#filter-1)">
            <g>
                <g id="编组-4备份">
                    <mask id="mask-3" fill="white">
                        <use xlink:href="#path-2"></use>
                    </mask>
                    <use id="app-icon" fill="#B9111A" xlink:href="#path-2"></use>
                    <path d="M-114.215385,577.393157 C-63.8460204,600.479204 11.1646262,600.479204 110.816555,577.393157 C210.468484,554.30711 513.550145,356.591443 1020.06154,-15.7538462 L-114.215385,1.38052102 L-114.215385,577.393157 Z" id="路径-5" fill="url(#linearGradient-4)" mask="url(#mask-3)"></path>
                    <path d="M-23.6307692,397.535679 C11.5228496,413.62144 63.87403,413.62144 133.422772,397.535679 C202.971514,381.449917 414.497257,243.686742 768,-15.7538462 L-23.6307692,-3.81506129 L-23.6307692,397.535679 Z" id="路径-5" fill="url(#linearGradient-5)" mask="url(#mask-3)"></path>
                    <path d="M-23.6307692,252.118994 C-0.894597872,262.544951 32.9643745,262.544951 77.946148,252.118994 C122.927921,241.693037 259.735616,152.402091 488.369231,-15.7538462 L-23.6307692,-8.01574485 L-23.6307692,252.118994 Z" id="路径-5" fill="url(#linearGradient-6)" mask="url(#mask-3)"></path>
                    <path d="M-23.6307692,141.143103 C-10.3388537,147.249735 9.4556225,147.249735 35.7526593,141.143103 C62.0496961,135.036471 142.029579,82.7374883 275.692308,-15.7538462 L-23.6307692,-11.2215297 L-23.6307692,141.143103 Z" id="路径-5" fill="url(#linearGradient-7)" mask="url(#mask-3)"></path>
                </g>
                <g id="Fill-26">
                    <use fill="black" fill-opacity="1" filter="url(#filter-9)" xlink:href="#path-8"></use>
                    <use fill="#FEFEFE" fill-rule="evenodd" xlink:href="#path-8"></use>
                </g>
            </g>
        </g>
    </g>
</svg>