<?xml version="1.0" encoding="utf-8"?>
<!-- Generator: Adobe Illustrator 16.0.0, SVG Export Plug-In . SVG Version: 6.00 Build 0)  -->
<!DOCTYPE svg PUBLIC "-//W3C//DTD SVG 1.1//EN" "http://www.w3.org/Graphics/SVG/1.1/DTD/svg11.dtd">
<svg version="1.1" id="图层_1" xmlns="http://www.w3.org/2000/svg" xmlns:xlink="http://www.w3.org/1999/xlink" x="0px" y="0px"
	 width="512px" height="512px" viewBox="0 0 512 512" enable-background="new 0 0 512 512" xml:space="preserve">
<linearGradient id="SVGID_1_" gradientUnits="userSpaceOnUse" x1="339.3203" y1="328.9189" x2="339.3202" y2="840.9199" gradientTransform="matrix(1 0 0 1 -83.3203 -328.9199)">
	<stop  offset="0" style="stop-color:#E45E44"/>
	<stop  offset="0.6129" style="stop-color:#D92819"/>
</linearGradient>
<rect fill="url(#SVGID_1_)" width="512" height="512"/>
<path fill="#F7F8F8" d="M432,214.7c0-0.3,0-0.7,0-1c-0.1-1.3-0.1-2.5-0.1-3.9c0-0.3,0-0.5-0.1-0.8c-0.1-1-0.1-2-0.2-3
	c0-0.4-0.1-0.9-0.1-1.3c-0.1-1.1-0.2-2.3-0.3-3.4c-0.1-0.5-0.1-1.2-0.2-1.7c-0.1-0.6-0.1-1.3-0.2-1.9c-0.1-1.2-0.3-2.5-0.5-3.6
	c-0.1-0.3-0.1-0.7-0.1-1c-0.1-0.8-0.3-1.7-0.4-2.5c-0.1-0.2-0.1-0.5-0.1-0.7c-4.1-24.9-13.5-48-26.8-68.2c-0.1-0.1-0.1-0.2-0.2-0.3
	c-0.4-0.7-0.9-1.3-1.4-2c-0.2-0.3-0.4-0.6-0.6-0.9c-0.6-0.9-1.3-1.9-1.9-2.8c-0.3-0.5-0.7-1-1-1.4c-0.3-0.5-0.7-1-1-1.4
	c-0.6-0.8-1.2-1.7-1.9-2.5c-0.3-0.3-0.5-0.7-0.8-1c-0.5-0.7-1-1.3-1.6-1.9c-0.3-0.3-0.5-0.6-0.8-1c-0.7-0.9-1.4-1.7-2.2-2.5
	c-0.3-0.3-0.6-0.6-0.8-0.9c-0.6-0.7-1.2-1.4-1.8-2c-0.2-0.3-0.5-0.6-0.7-0.8c-0.8-0.8-1.4-1.6-2.2-2.3c-0.3-0.4-0.8-0.8-1.1-1.2
	c-0.5-0.5-0.9-1-1.4-1.4c-0.8-0.8-1.6-1.6-2.3-2.3c-0.2-0.2-0.4-0.4-0.7-0.6c-8.3-8-17.5-15.3-27.2-21.5l-56.7,59.7l60.5,56.1v64.9
	l-82.5,82.5h-11v-55l60.5-60.5l-60.5-60.5v-53.9l57.8-49.5c-18.9-7.6-38.9-11.4-59.8-12c-0.4,0-0.8,0-1.2-0.1H254
	c-21.5,0-42.4,4.4-61.1,11.6l0.1,0.1l57.6,49.4v54.5L190,218.6l60.5,60.5v55h-11l-82.5-82v-65.5l60.5-55.6l-58.7-59.3l-0.1-0.1
	c-8.5,5.7-16.5,12.2-23.9,19.3c-0.1,0.1-0.3,0.3-0.5,0.5c-0.4,0.4-0.9,0.8-1.3,1.3C104.9,120.3,85.9,157,81.1,198
	c-0.1,0.4-0.1,0.9-0.1,1.3c-0.1,0.7-0.1,1.4-0.2,2.1c-0.1,1-0.2,2.1-0.3,3.2c-0.1,0.5-0.1,1-0.1,1.4c-0.1,1-0.1,1.9-0.2,2.8
	c0,0.3-0.1,0.7-0.1,1c-0.1,1.2-0.1,2.5-0.1,3.8c0,0.3,0,0.6,0,1c-0.1,1.4-0.1,2.7-0.1,4.1c0,97.4,78.7,176.1,176.1,176.1
	c97.4,0,176.1-78.7,176.1-176.1C432.1,217.3,432.1,216,432,214.7z"/>
<linearGradient id="SVGID_2_" gradientUnits="userSpaceOnUse" x1="339.3203" y1="701.9199" x2="339.3203" y2="840.9199" gradientTransform="matrix(1 0 0 1 -83.3203 -328.9199)">
	<stop  offset="0" style="stop-color:#F6CD83"/>
	<stop  offset="0.5161" style="stop-color:#F6CB53"/>
	<stop  offset="1" style="stop-color:#EFA339"/>
</linearGradient>
<path fill="url(#SVGID_2_)" d="M512,377c0,0-6.8-4-79.9-4C359,373,315,413,256,413s-115.2-40-176.1-40S0,377,0,377v135h512V377z"/>
<path fill="#A93924" d="M144.3,496.3v-71.6h26.1c9.9,0,16.4,0.4,19.4,1.1c4.6,1.1,8.5,3.4,11.6,7c3.1,3.6,4.7,8.2,4.7,13.9
	c0,4.4-0.9,8.1-2.7,11.1c-1.8,3-4.1,5.3-6.8,7.1c-2.8,1.7-5.6,2.8-8.4,3.4c-3.9,0.7-9.5,1-16.9,1h-10.6v27H144.3z M160.6,436.9v20.3
	h8.9c6.4,0,10.7-0.4,12.9-1.1c2.2-0.7,3.9-1.9,5.1-3.5c1.2-1.6,1.8-3.5,1.8-5.6c0-2.6-0.9-4.8-2.6-6.4c-1.7-1.7-3.9-2.8-6.5-3.2
	c-1.9-0.3-5.8-0.5-11.7-0.5H160.6L160.6,436.9z"/>
<path fill="#A93924" d="M219.5,496.3v-71.6h34.3c8.6,0,14.9,0.6,18.8,1.9c3.9,1.3,7,3.6,9.4,6.9c2.3,3.3,3.5,7,3.5,11.3
	c0,5.4-1.8,9.8-5.3,13.3c-3.6,3.5-8.9,5.7-15.9,6.6c3.5,1.8,6.4,3.8,8.7,6s5.4,6.1,9.3,11.6l9.8,14h-19.5l-11.8-15.6
	c-4.2-5.6-7-9.1-8.6-10.5c-1.5-1.4-3.2-2.4-4.9-3c-1.7-0.6-4.5-0.8-8.2-0.8h-3.3v29.9H219.5L219.5,496.3z M235.8,455h12
	c7.8,0,12.7-0.3,14.6-0.9c1.9-0.6,3.5-1.6,4.6-3c1.1-1.4,1.6-3.2,1.6-5.4c0-2.4-0.7-4.4-2.2-5.8c-1.4-1.5-3.5-2.4-6.1-2.8
	c-1.3-0.2-5.3-0.2-11.9-0.2h-12.7L235.8,455L235.8,455z"/>
<path fill="#A93924" d="M297.5,461c0-7.3,1.2-13.4,3.7-18.4c1.8-3.6,4.3-6.9,7.5-9.8c3.2-2.9,6.6-5,10.4-6.4
	c5-1.9,10.8-2.8,17.4-2.8c11.9,0,21.4,3.3,28.5,9.8s10.7,15.6,10.7,27.3c0,11.6-3.5,20.6-10.6,27.1c-7.1,6.5-16.5,9.8-28.4,9.8
	c-12,0-21.5-3.2-28.6-9.7C301,481.3,297.5,472.4,297.5,461z M314.3,460.5c0,8.1,2.1,14.3,6.3,18.4c4.2,4.2,9.6,6.3,16.1,6.3
	s11.8-2.1,16-6.2c4.2-4.2,6.2-10.4,6.2-18.7c0-8.2-2-14.3-6.1-18.4c-4.1-4-9.4-6.1-16.1-6.1s-12.1,2-16.2,6.1
	C316.3,446.1,314.3,452.3,314.3,460.5z"/>
<path fill="#C42500" d="M512,0L512,0v512H0V0H512 M512,0H0v512h512V0L512,0z"/>
</svg>
