<?xml version="1.0" encoding="UTF-8"?>
<svg width="256px" height="256px" viewBox="0 0 256 256" version="1.1" xmlns="http://www.w3.org/2000/svg" xmlns:xlink="http://www.w3.org/1999/xlink">
    <title>画板</title>
    <defs>
        <linearGradient x1="46.5456163%" y1="0%" x2="46.5456163%" y2="100%" id="linearGradient-1">
            <stop stop-color="#EAA738" offset="0%"></stop>
            <stop stop-color="#D6151A" offset="100%"></stop>
        </linearGradient>
    </defs>
    <g id="画板" stroke="none" stroke-width="1" fill="none" fill-rule="evenodd">
        <path d="M30,0 L30,256 L159.205959,256 L160.250552,256 L160.250552,255.955904 C167.026923,255.850753 173.297847,254.768709 179.262132,252.801357 C180.34716,252.462158 181.395122,252.048336 182.456562,251.654865 C182.547543,251.617554 182.641893,251.587026 182.732874,251.553106 C186.500145,250.135255 190.095565,248.368031 193.509023,246.309095 L160.250552,246.309095 L160.250552,238.405766 L204.103211,238.405766 C204.625507,237.930888 205.154542,237.459402 205.66336,236.967564 C205.76108,236.872589 205.865539,236.784397 205.959889,236.686029 C207.2134,235.454738 208.399518,234.165783 209.551939,232.842909 C209.592375,232.795421 209.63618,232.754717 209.673246,232.714013 C210.788601,231.418274 211.873629,230.088616 212.911482,228.718253 L160.250552,228.718253 L160.250552,220.814925 L218.164771,220.814925 C218.821853,219.617554 219.448609,218.406614 220.031558,217.216027 C220.031558,217.216027 221.224415,214.940004 222.673366,211.12402 L72.7406736,211.12402 L72.7406736,203.220691 L225.123104,203.220691 C225.247781,202.718677 225.392676,202.223447 225.503874,201.721433 C225.503874,201.721433 226.198023,198.52279 226.673144,193.950392 C226.686622,193.807929 226.689992,193.668857 226.703471,193.529786 L72.7406736,193.529786 L72.7406736,185.623066 L227,185.623066 C226.986521,184.368031 226.90228,181.165995 226.51814,178.435446 C226.400202,177.60441 226.285634,176.769981 226.160957,175.938944 L72.7406736,175.938944 L72.7406736,168.032224 L224.418846,168.032224 C223.984161,166.465126 223.445017,164.677549 222.73402,162.88658 C222.407164,162.072504 222.087047,161.255035 221.753451,160.447742 C221.598447,160.057664 221.450182,159.667585 221.288439,159.277507 C221.150283,158.965444 220.998649,158.653381 220.850384,158.344711 L72.7406736,158.344711 L72.7406736,150.43799 L216.766365,150.43799 C214.710877,146.998516 212.375708,143.755777 209.794554,140.747085 L149.002651,140.747085 L149.002651,132.843757 L201.78489,132.843757 C197.094333,128.926012 191.881481,125.656137 186.267639,123.156243 L149.002651,123.156243 L149.002651,115.249523 L175.828456,115.249523 C182.614936,113.207547 188.865642,109.774857 194.344697,105.450074 L149.002651,105.450074 L72.7406736,105.450074 L72.7406736,97.6586814 L202.543061,97.6586814 C205.08041,94.6771253 207.331338,91.4343863 209.24867,87.9677761 L72.7406736,87.9677761 L72.7406736,80.0644477 L213.042899,80.0644477 C213.363016,79.2334111 213.666285,78.3989824 213.929118,77.5475938 C214.690659,75.2172991 215.185998,72.8259487 215.661119,70.3735425 L72.7406736,70.3735425 L72.7406736,62.4702141 L216.810171,62.4702141 C216.81691,62.3345347 216.830388,62.2022472 216.837128,62.0699597 C216.894412,60.9743481 216.928108,59.9024804 216.928108,58.7933008 C216.928108,57.2804749 216.843867,55.7880008 216.736038,54.3057028 C216.702342,53.7935128 216.651797,53.2847149 216.601252,52.7827009 L72.7406736,52.7827009 L72.7406736,44.8759805 L215.175889,44.8759805 C214.39076,41.5246979 213.332689,38.2853509 212.015155,35.1884672 L160.250552,35.1884672 L160.250552,27.2817469 L207.924397,27.2817469 C205.767819,23.7846089 203.270906,20.5350859 200.467355,17.5908416 L160.250552,17.5908416 L160.250552,9.68751325 L191.140157,9.68751325 C182.945162,4.12804749 173.277629,0.691965232 162.865402,0.152639389 C162.609308,0.128895484 162.363324,0.128895484 162.103861,0.111935552 C161.483844,0.0881916472 160.873937,0.0305278779 160.250552,0.0135679457 L30,0 Z" id="Fill-1" fill="url(#linearGradient-1)"></path>
    </g>
</svg>